<?xml version="1.0" encoding="UTF-8" standalone="no"?>
<!-- Created with Inkscape (http://www.inkscape.org/) -->

<svg
   width="89.172226mm"
   height="83.345627mm"
   viewBox="0 0 89.172226 83.345627"
   version="1.1"
   id="svg5"
   sodipodi:docname="kicon.svg"
   inkscape:version="1.2.2 (732a01da63, 2022-12-09)"
   xmlns:inkscape="http://www.inkscape.org/namespaces/inkscape"
   xmlns:sodipodi="http://sodipodi.sourceforge.net/DTD/sodipodi-0.dtd"
   xmlns="http://www.w3.org/2000/svg"
   xmlns:svg="http://www.w3.org/2000/svg">
  <sodipodi:namedview
     id="namedview7"
     pagecolor="#ffffff"
     bordercolor="#000000"
     borderopacity="0.25"
     inkscape:showpageshadow="2"
     inkscape:pageopacity="0.0"
     inkscape:pagecheckerboard="0"
     inkscape:deskcolor="#d1d1d1"
     inkscape:document-units="mm"
     showgrid="false"
     inkscape:zoom="2.0888418"
     inkscape:cx="199.63216"
     inkscape:cy="219.739"
     inkscape:window-width="1280"
     inkscape:window-height="953"
     inkscape:window-x="1912"
     inkscape:window-y="-8"
     inkscape:window-maximized="1"
     inkscape:current-layer="layer1" />
  <defs
     id="defs2">
    <rect
       x="178.73656"
       y="357.47311"
       width="476.6308"
       height="487.46332"
       id="rect236" />
    <rect
       x="178.73656"
       y="357.47311"
       width="476.6308"
       height="487.46332"
       id="rect236-8" />
  </defs>
  <g
     inkscape:label="Camada 1"
     inkscape:groupmode="layer"
     id="layer1"
     transform="translate(-9.1198857,-64.092543)">
    <rect
       style="fill:#512bd4;fill-opacity:1;stroke-width:0.466"
       id="rect1004"
       width="89.172218"
       height="83.345619"
       x="9.1198864"
       y="64.092537" />
    <g
       aria-label="MauiApp"
       transform="matrix(0.56545493,0,0,0.65094334,-72.0252,-111.77558)"
       id="text234-7"
       style="font-size:21.1991px;font-family:Georgia;-inkscape-font-specification:'Georgia, Normal';white-space:pre;shape-inside:url(#rect236-8);display:inline;fill:#ffffff;stroke-width:1.76126">
      <path
         d="m 197.43046,376.59891 h -6.49016 v -0.73493 q 0.35194,-0.0104 0.90055,-0.0725 0.55896,-0.0621 0.76598,-0.17597 0.32089,-0.19667 0.4658,-0.4451 0.15527,-0.25878 0.15527,-0.64177 v -10.68236 h -0.15527 l -5.00994,12.51451 h -0.51756 l -4.77186,-12.77329 h -0.13457 v 8.7674 q 0,1.27319 0.15527,1.93566 0.16562,0.66248 0.49685,0.95231 0.22773,0.21737 0.94195,0.41404 0.71423,0.19667 0.93161,0.20702 v 0.73493 h -5.9312 v -0.73493 q 0.4658,-0.0414 0.97301,-0.15526 0.51755,-0.11386 0.79703,-0.34159 0.36229,-0.28983 0.49686,-0.8902 0.13456,-0.60036 0.13456,-2.00811 v -7.51492 q 0,-0.65212 -0.15526,-1.06616 -0.15527,-0.41405 -0.4451,-0.67283 -0.32089,-0.27948 -0.78669,-0.41404 -0.4658,-0.13457 -0.92125,-0.15527 v -0.73493 h 5.00995 l 4.20255,11.0136 3.59184,-9.2125 q 0.19667,-0.50721 0.33124,-1.05582 0.14491,-0.55896 0.15526,-0.74528 h 4.79257 v 0.73493 q -0.28983,0.0104 -0.74528,0.0932 -0.44509,0.0828 -0.65212,0.15527 -0.35194,0.12421 -0.47615,0.41404 -0.12421,0.28983 -0.12421,0.63142 v 10.5892 q 0,0.36229 0.12421,0.61072 0.12421,0.24842 0.47615,0.43474 0.18632,0.10351 0.66247,0.19667 0.47616,0.0828 0.75564,0.0932 z"
         id="path304" />
      <path
         d="m 208.80634,376.41259 q -0.4865,0.17597 -0.85914,0.27948 -0.36229,0.11387 -0.82809,0.11387 -0.80739,0 -1.29389,-0.37264 -0.47615,-0.383 -0.61072,-1.10757 h -0.0621 q -0.67283,0.74528 -1.44916,1.13862 -0.76598,0.39334 -1.85285,0.39334 -1.14898,0 -1.89426,-0.70387 -0.73493,-0.70388 -0.73493,-1.8425 0,-0.59002 0.16562,-1.05582 0.16562,-0.4658 0.49685,-0.83844 0.25878,-0.31053 0.68318,-0.54861 0.42439,-0.24843 0.79703,-0.39334 0.46581,-0.17597 1.88391,-0.65212 1.42845,-0.47615 1.92531,-0.74528 v -1.02476 q 0,-0.13457 -0.0621,-0.51756 -0.0517,-0.38299 -0.23807,-0.72458 -0.20703,-0.38299 -0.59002,-0.66247 -0.37264,-0.28983 -1.06616,-0.28983 -0.47616,0 -0.8902,0.16562 -0.40369,0.15526 -0.56931,0.33123 0,0.20702 0.0932,0.61072 0.10351,0.40369 0.10351,0.74528 0,0.36229 -0.33124,0.66247 -0.32088,0.30018 -0.90055,0.30018 -0.51755,0 -0.76598,-0.36229 -0.23807,-0.37264 -0.23807,-0.82809 0,-0.47615 0.33123,-0.9109 0.34159,-0.43474 0.87985,-0.77633 0.4658,-0.28983 1.12827,-0.4865 0.66247,-0.20702 1.29389,-0.20702 0.86949,0 1.51126,0.12421 0.65213,0.11386 1.18003,0.5072 0.52791,0.383 0.79704,1.04547 0.27948,0.65212 0.27948,1.68723 0,1.48021 -0.031,2.62919 -0.0311,1.13862 -0.0311,2.49462 0,0.40369 0.13457,0.64177 0.14491,0.23807 0.43474,0.40369 0.15527,0.0932 0.48651,0.10351 0.34158,0.0103 0.69352,0.0103 z m -3.61254,-5.46539 q -0.87985,0.25878 -1.54232,0.50721 -0.66247,0.24842 -1.23178,0.62106 -0.51756,0.35194 -0.81774,0.83844 -0.30018,0.47616 -0.30018,1.13863 0,0.85914 0.4451,1.26284 0.45545,0.40369 1.14897,0.40369 0.73493,0 1.29389,-0.35194 0.55896,-0.36229 0.94195,-0.84879 z"
         id="path306" />
      <path
         d="m 220.76189,376.41259 -3.32271,0.22773 -0.15527,-0.14492 v -1.29389 h -0.0621 q -0.24843,0.25878 -0.55896,0.55896 -0.31054,0.28983 -0.71423,0.52791 -0.4658,0.27948 -0.90055,0.4244 -0.43475,0.14491 -1.23178,0.14491 -1.356,0 -2.07023,-0.87984 -0.70387,-0.8902 -0.70387,-2.57743 v -4.88573 q 0,-0.37264 -0.14492,-0.62107 -0.13457,-0.25878 -0.40369,-0.4451 -0.18632,-0.12421 -0.4658,-0.17597 -0.27949,-0.0621 -0.59002,-0.0828 v -0.67282 l 3.40552,-0.24843 0.15527,0.14492 v 7.09052 q 0,1.10757 0.49685,1.66653 0.49686,0.55896 1.19038,0.55896 0.56931,0 1.01441,-0.17597 0.4451,-0.17597 0.74528,-0.41404 0.27948,-0.21738 0.4865,-0.45545 0.21738,-0.24843 0.33124,-0.45545 v -5.78628 q 0,-0.34159 -0.14492,-0.60037 -0.14491,-0.26913 -0.40369,-0.45545 -0.18632,-0.12421 -0.55896,-0.14491 -0.36229,-0.031 -0.81774,-0.0518 v -0.67282 l 3.7057,-0.24843 0.15527,0.14492 v 8.10493 q 0,0.35194 0.14492,0.60036 0.14491,0.24843 0.40369,0.4244 0.18632,0.11386 0.4451,0.15527 0.25878,0.031 0.56931,0.0414 z"
         id="path308" />
      <path
         d="m 226.97257,376.59891 h -4.93749 v -0.68317 q 0.23808,-0.0207 0.4865,-0.0414 0.25878,-0.0207 0.4451,-0.0828 0.28983,-0.0932 0.4244,-0.32089 0.14491,-0.23807 0.14491,-0.61071 v -6.30384 q 0,-0.33123 -0.15526,-0.60036 -0.14492,-0.27948 -0.41405,-0.4658 -0.19667,-0.12422 -0.56931,-0.20703 -0.37264,-0.0932 -0.68318,-0.11386 v -0.67282 l 3.6022,-0.22773 0.14491,0.14492 v 8.3223 q 0,0.36229 0.13457,0.60037 0.14491,0.23807 0.44509,0.35194 0.22773,0.0932 0.4451,0.15526 0.21738,0.0518 0.48651,0.0725 z m -1.30425,-14.357 q 0,0.59001 -0.39334,1.03511 -0.38299,0.43475 -0.9523,0.43475 -0.52791,0 -0.92125,-0.41405 -0.38299,-0.4244 -0.38299,-0.96265 0,-0.56932 0.38299,-0.99371 0.39334,-0.4244 0.92125,-0.4244 0.59001,0 0.96265,0.4037 0.38299,0.39334 0.38299,0.92125 z"
         id="path310" />
      <path
         d="m 242.18872,376.59891 h -6.11752 v -0.73493 q 0.80739,-0.0518 1.3353,-0.20702 0.53826,-0.15526 0.53826,-0.38299 0,-0.0932 -0.0207,-0.22772 -0.0207,-0.13457 -0.0621,-0.23808 l -1.22144,-3.29166 h -5.1445 q -0.28983,0.72458 -0.47616,1.26284 -0.17596,0.53826 -0.32088,0.99371 -0.13456,0.4451 -0.18632,0.72458 -0.0518,0.27948 -0.0518,0.45545 0,0.41404 0.65212,0.64177 0.65213,0.22772 1.46986,0.26912 v 0.73493 h -5.5275 v -0.73493 q 0.26913,-0.0207 0.67283,-0.11386 0.40369,-0.10351 0.66247,-0.26913 0.41404,-0.27948 0.64177,-0.57966 0.22772,-0.31053 0.4451,-0.84879 1.10757,-2.76375 2.44286,-6.21068 1.3353,-3.44692 2.38076,-6.13821 h 0.82809 l 4.89608,12.66977 q 0.15527,0.4037 0.35194,0.65212 0.19667,0.24843 0.54861,0.48651 0.23808,0.14491 0.62107,0.24842 0.38299,0.0932 0.64177,0.10351 z m -5.92085,-6.00365 -2.22549,-5.69311 -2.18408,5.69311 z"
         id="path312" />
      <path
         d="m 251.77386,367.60379 q 0.61071,0.72458 0.94195,1.68723 0.34159,0.9523 0.34159,2.18409 0,1.21108 -0.4037,2.21514 -0.40369,0.99371 -1.06616,1.69758 -0.69353,0.71423 -1.54232,1.09722 -0.84879,0.38299 -1.8011,0.38299 -0.92125,0 -1.51126,-0.20702 -0.59001,-0.20702 -0.96266,-0.4865 h -0.0828 v 3.06393 q 0,0.37264 0.14491,0.62107 0.14492,0.24843 0.4451,0.36229 0.24843,0.0932 0.70388,0.17597 0.4658,0.0932 0.76598,0.10351 v 0.69352 h -5.70347 v -0.69352 q 0.32089,-0.0207 0.62107,-0.0518 0.30018,-0.031 0.53826,-0.10351 0.31053,-0.10351 0.43474,-0.36229 0.12422,-0.25878 0.12422,-0.61071 v -10.85833 q 0,-0.31054 -0.15527,-0.60037 -0.15527,-0.28983 -0.40369,-0.4658 -0.18632,-0.12421 -0.51756,-0.18632 -0.33124,-0.0725 -0.64177,-0.0932 v -0.67282 l 3.47798,-0.22773 0.14491,0.12422 v 1.14897 l 0.0828,0.0207 q 0.53826,-0.62106 1.3353,-1.03511 0.79703,-0.41404 1.58372,-0.41404 0.9523,0 1.73899,0.40369 0.79703,0.40369 1.36635,1.08687 z m -1.68724,7.33894 q 0.41405,-0.64176 0.61072,-1.49056 0.19667,-0.84879 0.19667,-1.89425 0,-0.76599 -0.16562,-1.56302 -0.16562,-0.79704 -0.51755,-1.38705 -0.35194,-0.60037 -0.92125,-0.97301 -0.56932,-0.37264 -1.36635,-0.37264 -0.76598,0 -1.30424,0.34159 -0.53826,0.33123 -0.9316,0.79703 v 6.03471 q 0.0932,0.27948 0.30018,0.57966 0.21737,0.30019 0.47615,0.51756 0.32088,0.25878 0.69353,0.42439 0.37264,0.15527 0.91089,0.15527 0.57967,0 1.11793,-0.30018 0.53825,-0.31053 0.90054,-0.8695 z"
         id="path314" />
      <path
         d="m 263.88467,367.60379 q 0.61072,0.72458 0.94195,1.68723 0.34159,0.9523 0.34159,2.18409 0,1.21108 -0.4037,2.21514 -0.40369,0.99371 -1.06616,1.69758 -0.69353,0.71423 -1.54232,1.09722 -0.84879,0.38299 -1.80109,0.38299 -0.92125,0 -1.51127,-0.20702 -0.59001,-0.20702 -0.96265,-0.4865 h -0.0828 v 3.06393 q 0,0.37264 0.14491,0.62107 0.14492,0.24843 0.4451,0.36229 0.24843,0.0932 0.70388,0.17597 0.4658,0.0932 0.76598,0.10351 v 0.69352 h -5.70347 v -0.69352 q 0.32089,-0.0207 0.62107,-0.0518 0.30018,-0.031 0.53826,-0.10351 0.31053,-0.10351 0.43475,-0.36229 0.12421,-0.25878 0.12421,-0.61071 v -10.85833 q 0,-0.31054 -0.15527,-0.60037 -0.15526,-0.28983 -0.40369,-0.4658 -0.18632,-0.12421 -0.51756,-0.18632 -0.33123,-0.0725 -0.64177,-0.0932 v -0.67282 l 3.47798,-0.22773 0.14492,0.12422 v 1.14897 l 0.0828,0.0207 q 0.53825,-0.62106 1.33529,-1.03511 0.79704,-0.41404 1.58372,-0.41404 0.95231,0 1.73899,0.40369 0.79704,0.40369 1.36635,1.08687 z m -1.68723,7.33894 q 0.41404,-0.64176 0.61071,-1.49056 0.19667,-0.84879 0.19667,-1.89425 0,-0.76599 -0.16561,-1.56302 -0.16562,-0.79704 -0.51756,-1.38705 -0.35194,-0.60037 -0.92125,-0.97301 -0.56931,-0.37264 -1.36635,-0.37264 -0.76598,0 -1.30424,0.34159 -0.53826,0.33123 -0.9316,0.79703 v 6.03471 q 0.0932,0.27948 0.30018,0.57966 0.21738,0.30019 0.47615,0.51756 0.32089,0.25878 0.69353,0.42439 0.37264,0.15527 0.9109,0.15527 0.57966,0 1.11792,-0.30018 0.53826,-0.31053 0.90055,-0.8695 z"
         id="path316" />
    </g>
    <g
       aria-label="K"
       transform="matrix(1.4518817,0,0,1.0729035,-231.84579,-318.01549)"
       id="text234"
       style="font-size:47.3792px;font-family:Stencil;-inkscape-font-specification:'Stencil, Normal';white-space:pre;shape-inside:url(#rect236);fill:#ffffff;stroke-width:1.76126">
      <path
         d="m 193.77367,410.77426 h -10.31793 -0.60149 q -0.83284,0 -1.29553,-0.30075 -0.43955,-0.32388 -0.43955,-0.90224 0,-0.94851 0.92537,-1.24926 0.76344,-0.25448 0.87911,-0.30074 0.13881,-0.0694 0.27761,-0.27762 0.27761,-0.37015 0.27761,-1.17985 v -23.15751 q 0,-0.8097 -0.27761,-1.17985 -0.1388,-0.20821 -0.27761,-0.25448 -0.11567,-0.0694 -0.87911,-0.32388 -0.92537,-0.30075 -0.92537,-1.24926 0,-0.57836 0.43955,-0.8791 0.46269,-0.32389 1.29553,-0.32389 h 0.60149 10.31793 0.6015 q 0.83283,0 1.27239,0.32389 0.46268,0.30074 0.46268,0.8791 0,0.94851 -0.92537,1.24926 -0.76344,0.25448 -0.90224,0.32388 -0.11567,0.0463 -0.25448,0.25448 -0.27761,0.37015 -0.27761,1.17985 v 23.15751 q 0,1.29552 0.67089,1.52687 l 0.71717,0.23134 q 0.87911,0.27761 0.87911,1.24926 0,1.20299 -1.64254,1.20299 z m 9.16121,-22.41721 6.98659,18.27615 q 0.27761,0.7403 0.57835,1.13359 0.30075,0.37015 0.78657,0.57836 0.48583,0.23134 0.62463,0.34701 0.32388,0.32388 0.32388,0.85597 0,1.22613 -1.73508,1.22613 h -11.63659 q -0.83283,0 -1.29552,-0.34702 -0.43955,-0.34702 -0.43955,-0.99478 0,-0.7403 0.85597,-1.15672 0.53209,-0.25447 0.71716,-0.41642 0.18508,-0.18507 0.20821,-0.48582 0,-0.16194 -0.18507,-0.7403 l -2.9612,-8.83733 q -0.41642,-1.22612 -0.41642,-2.08209 0,-0.80971 0.6709,-1.75821 l 5.52911,-7.79629 q 0.78657,-1.08731 0.78657,-2.26717 0,-0.64776 -0.34702,-1.20299 -0.34701,-0.55522 -0.92537,-0.78656 l -0.83284,-0.34702 q -0.78657,-0.32388 -0.78657,-1.08732 0,-0.62462 0.48583,-1.01791 0.32388,-0.25448 1.06418,-0.25448 h 8.23583 q 0.80971,0 1.24926,0.37015 0.46269,0.34702 0.46269,0.99478 0,0.97165 -1.06418,1.38806 l -1.22613,0.48583 q -0.76343,0.27761 -1.94328,1.24925 -0.87911,0.7403 -2.17463,2.47538 z"
         id="path319" />
    </g>
    <rect
       style="fill:#6640e9;fill-opacity:1;stroke-width:0.0663823"
       id="rect2762"
       width="12.666505"
       height="11.906509"
       x="81.065651"
       y="72.199104"
       ry="5.9532547"
       rx="6.3332524" />
    <rect
       style="fill:#5930e9;fill-opacity:1;stroke-width:0.0444568"
       id="rect2816"
       width="8.6132221"
       height="7.8532267"
       x="70.679115"
       y="70.172462"
       ry="3.9266133"
       rx="4.3066111" />
  </g>
</svg>
